<?xml version="1.0" encoding="UTF-8" standalone="no"?>
<svg
   width="155"
   height="97.519"
   viewBox="0 0 155.001 97.519"
   version="1.1"
   id="svg24"
   xmlns="http://www.w3.org/2000/svg"
   xmlns:svg="http://www.w3.org/2000/svg">
  <g
     id="g24"
     transform="translate(0.1304277,-0.33302478)">
    <g
       transform="matrix(0.085013,0,0,0.085013,-8.473968,-5.549921)"
       id="g21">
      <use
         href="#A"
         fill="#cca250"
         x="-6.9400001"
         y="9.2539997"
         id="use1" />
      <use
         href="#B"
         fill="#205c22"
         x="-6.9400001"
         y="9.2539997"
         id="use2" />
      <use
         href="#C"
         fill="#d1aa60"
         x="-6.9400001"
         y="9.2539997"
         id="use3" />
      <use
         href="#D"
         fill="#fefefd"
         x="-6.9400001"
         y="9.2539997"
         id="use4" />
      <use
         href="#E"
         fill="#d4ad64"
         x="-6.9400001"
         y="9.2539997"
         id="use5" />
      <use
         href="#F"
         fill="#3b6b3f"
         x="-6.9400001"
         y="9.2539997"
         id="use6" />
      <use
         href="#G"
         fill="#1c5421"
         x="-6.9400001"
         y="9.2539997"
         id="use7" />
      <use
         href="#H"
         fill="#326537"
         x="-6.9400001"
         y="9.2539997"
         id="use8" />
      <use
         href="#I"
         fill="#709474"
         x="-6.9400001"
         y="9.2539997"
         id="use9" />
      <use
         href="#J"
         fill="#4b7750"
         x="-6.9400001"
         y="9.2539997"
         id="use10" />
      <use
         href="#K"
         fill="#547e58"
         x="-6.9400001"
         y="9.2539997"
         id="use11" />
      <use
         href="#L"
         fill="#90ac93"
         x="-6.9400001"
         y="9.2539997"
         id="use12" />
      <use
         href="#M"
         fill="#698e6d"
         x="-6.9400001"
         y="9.2539997"
         id="use13" />
      <use
         href="#N"
         fill="#82a185"
         x="-6.9400001"
         y="9.2539997"
         id="use14" />
      <use
         href="#O"
         fill="#a5bba8"
         x="-6.9400001"
         y="9.2539997"
         id="use15" />
      <use
         href="#P"
         fill="#d7b26e"
         x="-6.9400001"
         y="9.2539997"
         id="use16" />
      <use
         href="#Q"
         fill="#d5af67"
         x="-6.9400001"
         y="9.2539997"
         id="use17" />
      <use
         href="#R"
         fill="#d4ad64"
         x="-6.9400001"
         y="9.2539997"
         id="use18" />
      <use
         href="#S"
         fill="#cba04b"
         x="-6.9400001"
         y="9.2539997"
         id="use19" />
      <use
         href="#T"
         fill="#cca04b"
         x="-6.9400001"
         y="9.2539997"
         id="use20" />
      <use
         href="#U"
         fill="#caa04b"
         x="-6.9400001"
         y="9.2539997"
         id="use21" />
    </g>
    <g
       fill="#cba04b"
       transform="matrix(0.085013,0,0,0.085013,-9.063957,-4.763215)"
       id="g23">
      <use
         href="#V"
         id="use22" />
      <use
         href="#W"
         id="use23" />
    </g>
    <use
       href="#X"
       fill="#ca9f4b"
       x="-6.9400001"
       y="9.2539997"
       transform="matrix(0.085013,0,0,0.085013,-8.473968,-5.549921)"
       id="use24" />
  </g>
  <defs
     id="defs24">
    <path
       id="A"
       d="M258 465c-6.42 7.13-14.09 13.28-21 20-1.67.44-2.34 2.46-4 3-4.34 6.29-10.09 12.07-16 17-58.24 63.63-94.68 147.69-78.99 235.99 32.47 158.43 189.94 256.63 327.3 314.7 169.47 69.08 352.31 98.92 540.69 100.31h22c149.24-.91 294.24-20.37 432.78-62.22 116.63-35.65 230.39-86.67 324.22-169.78 12.44-13.17 25.57-26.21 38-39 65.02-71.96 97.13-177.55 60.98-270.97-28.79-80.58-96.3-146.12-167.28-193.72C1553.66 313.59 1361.26 266.18 1167 248c-4.46-21.44-.81-45.5-2-68v-69H850c-2.32 45.84-.35 92.75-1 139-211.95 22.37-423.86 77.71-591 215m879 154H876V135c86.1-2.33 174.15-.33 261-1v485m35-333c1.28.28 3.5-.76 4 1 177.63 17.07 352.73 59.07 505.08 151.92 64.81 40.54 129.04 96.39 160.9 167.11 40.63 80.68 18.62 181.34-38.98 247.97-18.38 23.89-41.24 45.78-65 64-110.71 87.55-245.39 133.71-380.07 164.93-308.24 62.2-651.32 46.95-933.16-86.7C308.88 940.27 178.7 842.92 174 702c.01-142.27 130.53-241.76 246.07-298.93C554.19 337.19 700.38 302.95 850 288v27 9 30 8 281h315V312c2.24-7.75-5.82-31.85 7-26z" />
    <path
       id="B"
       d="M1137 619V135H876v484h261m-7-479v473H884V140z" />
    <path
       id="C"
       d="M1130 140H884v473h246V140m-21 24v418c-.55 12.02-19.53 3.39-28 6H906V164z" />
    <path
       id="D"
       d="M1109 164H906v424h175c8.47-2.61 27.45 6.02 28-6V164m-104 123c13.82-20.57 42.31-28.94 65-19-7.74 27.29-39.87 32.42-65 30-2.28 7.55 5.18 23.8-5 25v-11c-22.88-1.64-52.3-12-56-38 21.73-3.42 40.26 7.44 55 22-.22-13.39 2.39-27.75-6.77-38.23-11.69-22.04-6.95-50.6 7.52-70.02 10.23.74 12.89 17.75 17.17 26.33 10.02 26.39-15.94 47.88-11.92 72.92m-57 56v207c-11.73.89-3.59-17.29-6-25V369c2.53-8-5.91-26.61 6-26m10 0v207c-12.88 2.18-4.72-16.25-7-24-.76-52.61 1.56-104.44 1-157 2.53-8-5.91-26.61 6-26m32 0v90c11.1-4.26 27.91 3.18 34.77-9.23 13.65-23.56 4.63-53.98 7.23-80.77h27c-2.94 32.99 7.83 70.52-10 99 13.59-8.37 14.6-27.13 15-42-.37-19.18.28-38.09 1-57 9.48-1.04 3.19 13.07 5 19-.57 23.78 1.77 48.29-4.33 70.67-1.36 5.57-9.43 9.66-7.67 15.33 19.61-20.68 15.66-51.58 16-79 2.12-8.01-5.24-25.46 6-26-2.86 37.54 7.49 79.79-16 111 23.26 25.16 12.3 63.59 15 96-9.37-.12-3.82-15.93-6-23 3.62-32.3-1.15-68.29-33.08-82.92-14.21-7.24-34-10.5-48.92-4.08 23.74-2.62 53.38.93 68.92 23.08 17.13 24.54 7.5 57.9 10.08 86.92-11.73.89-3.59-17.29-6-25 6.83-35.45-9.85-76.74-49.01-78.99-7.39.5-22.21-3.05-23.99 5.99 21.76-5.17 50.66-2.94 61.31 19.7 10.26 23.81 5.02 52.1 6.69 78.3h-28c-1.16-20.22 2.4-41.7-1.93-61.07-7.52-16.52-30.57-14.47-37.82 1.32-2.27 19.36-1.37 40.58-1.25 59.75h-29V343z" />
    <path
       id="E"
       d="M1005 287c-4.02-25.04 21.94-46.53 11.92-72.92-4.28-8.58-6.94-25.59-17.17-26.33-14.47 19.42-19.21 47.98-7.52 70.02 9.16 10.48 6.55 24.84 6.77 38.23-14.74-14.56-33.27-25.42-55-22 3.7 26 33.12 36.36 56 38v11c10.18-1.2 2.72-17.45 5-25 25.13 2.42 57.26-2.71 65-30-22.69-9.94-51.18-1.57-65 19z" />
    <path
       id="F"
       d="M1166 643c2.33-7.01.34-21.99 1-32V359c125.6 13.83 250.39 32.99 368.08 75.92 27.56 6.28 52.77 27.47 80.92 26.08-27.23-42.46-83.45-50.94-127.02-69.98C1385.3 353.95 1277.53 329.46 1167 317v-31c2.58 1.82 6.03.67 9 1-.5-1.76-2.72-.72-4-1-2.22.48-4.01-.72-6-1v358m1-295v-19c-.68-2.61 1.34-4.45 1-7 110.63 13.75 218.83 38.44 322.22 77.78 30.55 12.71 65.58 23.61 90.78 41.22-119.72-46.9-250.34-68.96-380.22-83.78-10.65-3.36-31.21 4.12-33.78-9.22z" />
    <path
       id="G"
       d="M1166 643h-1-315V362c0 .04-1 0-1 0-202.72 33.67-419.76 88.32-562.25 251.75-17.25 19.26-28.77 44.04-45.78 62.22-5.87-12.32 4.97-27.99 8.01-40.99 64.76-152.69 227.91-230.64 375.24-275.76C697.62 337.76 772.51 321.9 849 312v3c.25-.25 1 0 1 0v-27c-149.62 14.95-295.81 49.19-429.93 115.07C304.53 460.24 174.01 559.73 174 702c4.7 140.92 134.88 238.27 250.77 294.23 281.84 133.65 624.92 148.9 933.16 86.7 134.68-31.22 269.36-77.38 380.07-164.93 22.9-19.33 45.68-40.99 65-64 57.6-66.63 79.61-167.29 38.98-247.97-31.86-70.72-96.09-126.57-160.9-167.11C1528.73 346.07 1353.63 304.07 1176 287c-2.97-.33-6.42.82-9-1v31c110.53 12.46 218.3 36.95 321.98 74.02 43.57 19.04 99.79 27.52 127.02 69.98-28.15 1.39-53.36-19.8-80.92-26.08C1417.39 391.99 1292.6 372.83 1167 359v252c-.66 10.01 1.33 24.99-1 32m325 183c4.5.64 10.33-1.3 14 1h61c-2.67-8.2-13.16-11.57-18.75-18.25-7.22-3.46-13.45-14.44-21-13.49-9.03 8.02-16.25-1.06-22.5-8.01-12.95-12.26-24.77-25.7-36.75-38.25l18.92-56.08c2.15-9.71 4.71-20.73 17.09-19.91 39.09-11.93 79.01-21.26 118.21-32.79 7.02-.45 25.96-11.72 19.8 2.8-2.69 9.98-5.7 19.88-8 30-3.27 8.75-2.69 22.29-14.7 23.3L1535 726c15.78 16.32 33.3 30.89 50.25 45.75 15.07 16.86 39.95 28.16 46.08 50.92-1.05 26.86-11.97 52.7-16.33 79.33-87.92-.66-176.51 1.32-264.01-.99-12.87 2.63-12.88 21.92-22.74 30.24-15.1 19.73-30.53 45.94-57.47 48.53-29.34 1.7-54.21-13.64-78.86-26.7-10.16-7.31-23.18-13.69-27.92-26.08 40.5 15.85 85.1 4.88 118.25-21.75 15.6-8.4 39.07-23.65 27.97-44.47-10.57-15.85-19.82-32.51-28.52-49.47 8.3-15.49 22.29-29.92 32.3-45.31 19.66 18.97 28.55 54.34 59.01 58.99 39.47-.24 78.39 1.77 117.99 1.01m-416-1c29.43-2.33 60.82-.33 91-1 15.5-1.6-.43-17.66-2.92-25.08-5.29-8.86-10.1-17.89-15.08-26.92 13.66-11.26 26.33-23.85 40-35 36.01 39.29 22.92 95.14 17 143 .55 13.84-5.24 27.1-22 22H830c-31.38-3.61-15.75-45.8-21.78-67.22-2.24-40.71-7.05-80.6-11.22-120.78-6.58-12.29 6.24-19.12 14.75-25.25 8.75-6.16 17.14-13.47 26.25-18.75l8 104c3.34 15.76-1.1 34.53 7.75 48.25 15.98 6.16 35.77 1.11 53.25 2.75h168M724 680c9.43 9.04 19.5 17.67 28.75 27.25 10 12.37-12.42 21.21-18.5 31-9.13 15.74-24.89 7.56-33-4.5-7.98-8.95-26.93-19.32-10.5-30 11.43-7.22 18.32-24.62 33.25-23.75M621 781c-10.14-19.5-35.9-28.64-53.23-13.23-7.94 6.07-17.04 10.31-24.02 17.98-8.27 5.92-11.98 21.77-.67 26.17 23.15 4.72 46.74 8.22 69.92 13.08 26.59 6.83 11.51 40.45 4.02 57.03-4.5 9.81-9.17 19.62-12.01 29.98-43.36 34.5-100.38 55.81-157.08 44.06-54.36-8.89-45.48-77.53-37.15-117.29 1.5-11.14 5.95-21.35 10.53-31.47 3.99-6.91 9.43-22.69 17.99-19.6 4.09 12.23-4.26 22.41-7.23 33.36-3.22 20.45-14.08 50.79 8.16 64.7 28.37 21.67 69.58 16.16 102.44 8.9 10.33-3.71 21.01-6.31 31.02-10.98 11.97-.97 18.39-16.06 2.63-17.01-22.18-8.48-50.48 3.03-70.07-12.93-15.41-17.82-1.44-44.11 5.67-62.83 19.43-33.42 46.39-69.66 85.1-80.9 11.12-1.67 25.13-3.11 32.73 7.23 11.28 19.61-3.9 44.01-8.75 63.75m175 54c1.6 3.93 1.7 11.14 0 15 .68 60.03-46.47 133.81-114.67 117.67-27.03-8.63-57.76-20.03-74.32-44.68 9.08-3.55 21.18 4.97 31.99 4.01 41.66 3.84 80.99-16.58 110.25-45.75 19.09-16.91-2.18-36.85-14.5-50-6.62-6.51-12.64-13.51-18.67-20.33-3.3-10.26 6.78-19.02 9.23-28.61 4.69-8.59 8.34-17.62 12.61-26.39C763.06 777.13 790.05 801.7 796 835m314 139c-9.28 7.34-16.67 24.79-30.07 21.07-9.61-7.8-21.57-14.65-28.9-24.1 3.96-11.52 16.98-18.59 24.72-28.22 14.82-5.64 21.61 16.1 34.92 15.92 9.82-6.55 17.14-25.3 30.55-18.89 8.85 8.47 23.26 13.99 27.77 25.23-6.81 9.82-17.23 18.65-26.07 26.91-13.59 3.85-21.15-14.1-32.92-17.92z" />
    <path
       id="H"
       d="M849 362v-3c-199.53 32.51-409.42 84.89-553.75 241.25C278.17 616.69 267.5 641.42 249 654c6.75-46.05 37.72-84.03 68.25-118.75 99.18-105.18 237.98-155.45 372.82-190.18C742.29 332.55 795.12 322.23 849 316c-.1-.48 0-1 0-1v-3c-76.49 9.9-151.38 25.76-224.78 47.22-147.33 45.12-310.48 123.07-375.24 275.76-3.04 13-13.88 28.67-8.01 40.99 17.01-18.18 28.53-42.96 45.78-62.22C429.24 450.32 646.28 395.67 849 362z" />
    <path
       id="I"
       d="M849 316v4c-153.93 23.94-308.16 61.02-441.08 144.92C352.1 502.98 291.58 552.71 269 617c17.57-8.16 30.22-30.63 46.75-44.25C460.77 434.7 657.96 383.61 849 354v5 3s1 .04 1 0v-8c-1.75-.83-.66-3.44-1-5-183.75 27.67-370.02 77.85-516.25 199.75-8.93 6.41-16.97 17.42-26.75 19.25 44.56-68.69 119.81-111.73 190.7-146.3 82.1-37.69 168.98-62.79 257.37-80.63 31.42-7.25 65.67-8.76 95.93-17.07v-9s-.75-.25-1 0c0 0-.1.52 0 1z" />
    <path
       id="J"
       d="M849 359v-5c-191.04 29.61-388.23 80.7-533.25 218.75-16.53 13.62-29.18 36.09-46.75 44.25 22.58-64.29 83.1-114.02 138.92-152.08C540.84 381.02 695.07 343.94 849 320v-4c-53.88 6.23-106.71 16.55-158.93 29.07-134.84 34.73-273.64 85-372.82 190.18-30.53 34.72-61.5 72.7-68.25 118.75 18.5-12.58 29.17-37.31 46.25-53.75C439.58 443.89 649.47 391.51 849 359z" />
    <path
       id="K"
       d="M1167 329c0-.04 1 0 1 0v-1c9.18-5.13 23.36 3 35 1 66.85 11.7 133.45 24.8 198.01 44.99 9.31 4.62 20.71 5.55 27.99 13.01-41.71-3.48-84.31-15.65-127-20-44.14-7.36-88.8-12.77-134-16-.11-1 .47-2.73-1-3 2.57 13.34 23.13 5.86 33.78 9.22 129.88 14.82 260.5 36.88 380.22 83.78-25.2-17.61-60.23-28.51-90.78-41.22-103.39-39.34-211.59-64.03-322.22-77.78.34 2.55-1.68 4.39-1 7z" />
    <path
       id="L"
       d="M850 354v-30c-30.26 8.31-64.51 9.82-95.93 17.07-88.39 17.84-175.27 42.94-257.37 80.63C425.81 456.27 350.56 499.31 306 568c9.78-1.83 17.82-12.84 26.75-19.25C478.98 426.85 665.25 376.67 849 349c.34 1.56-.75 4.17 1 5m-1-23v13c-113.89 16.78-226.09 42.73-331.69 87.31C469.27 451.02 421.97 477.79 379 503c34.68-33.94 84.58-59.75 130.69-81.31C617.12 374.44 731.66 345.59 849 331z" />
    <path
       id="M"
       d="M1168 328c46.48 5.79 92.45 13.56 137.67 24.33 12.76 4.8 30.17 5.47 39.33 14.67-54.48-4.34-111.63-13.3-168-18-13.2 3.3-8.1-12.21-9-20 0 0-1-.04-1 0v19c1.47.27.89 2 1 3 45.2 3.23 89.86 8.64 134 16 42.69 4.35 85.29 16.52 127 20-7.28-7.46-18.68-8.39-27.99-13.01C1336.45 353.8 1269.85 340.7 1203 329c-11.64 2-25.82-6.13-35-1z" />
    <path
       id="N"
       d="M1168 329c.9 7.79-4.2 23.3 9 20 56.37 4.7 113.52 13.66 168 18-9.16-9.2-26.57-9.87-39.33-14.67-45.22-10.77-91.19-18.54-137.67-24.33z" />
    <path
       id="O"
       d="M849 331c-117.34 14.59-231.88 43.44-339.31 90.69C463.58 443.25 413.68 469.06 379 503c42.97-25.21 90.27-51.98 138.31-71.69C622.91 386.73 735.11 360.78 849 344z" />
    <path
       id="P"
       d="M948 343c-11.91-.61-3.47 18-6 26v156c2.41 7.71-5.73 25.89 6 25z" />
    <path
       id="Q"
       d="M958 343c-11.91-.61-3.47 18-6 26 .56 52.56-1.76 104.39-1 157 2.28 7.75-5.88 26.18 7 24z" />
    <path
       id="R"
       d="M990 343h-29v207h29c-.12-19.17-1.02-40.39 1.25-59.75 7.25-15.79 30.3-17.84 37.82-1.32 4.33 19.37.77 40.85 1.93 61.07h28c-1.67-26.2 3.57-54.49-6.69-78.3-10.65-22.64-39.55-24.87-61.31-19.7 1.78-9.04 16.6-5.49 23.99-5.99 39.16 2.25 55.84 43.54 49.01 78.99 2.41 7.71-5.73 25.89 6 25-2.58-29.02 7.05-62.38-10.08-86.92-15.54-22.15-45.18-25.7-68.92-23.08 14.92-6.42 34.71-3.16 48.92 4.08 31.93 14.63 36.7 50.62 33.08 82.92 2.18 7.07-3.37 22.88 6 23-2.7-32.41 8.26-70.84-15-96 23.49-31.21 13.14-73.46 16-111-11.24.54-3.88 17.99-6 26-.34 27.42 3.61 58.32-16 79-1.76-5.67 6.31-9.76 7.67-15.33 6.1-22.38 3.76-46.89 4.33-70.67-1.81-5.93 4.48-20.04-5-19-.72 18.91-1.37 37.82-1 57-.4 14.87-1.41 33.63-15 42 17.83-28.48 7.06-66.01 10-99h-27c-2.6 26.79 6.42 57.21-7.23 80.77-6.86 12.41-23.67 4.97-34.77 9.23z" />
    <path
       id="S"
       d="M1505 827c-4.5-.64-10.32 1.3-14-1-39.6.76-78.52-1.25-117.99-1.01-30.46-4.65-39.35-40.02-59.01-58.99-10.01 15.39-24 29.82-32.3 45.31 8.7 16.96 17.95 33.62 28.52 49.47 11.1 20.82-12.37 36.07-27.97 44.47-33.15 26.63-77.75 37.6-118.25 21.75 4.74 12.39 17.76 18.77 27.92 26.08 24.65 13.06 49.52 28.4 78.86 26.7 26.94-2.59 42.37-28.8 57.47-48.53 9.86-8.32 9.87-27.61 22.74-30.24 87.5 2.31 176.09.33 264.01.99 4.36-26.63 15.28-52.47 16.33-79.33-6.13-22.76-31.01-34.06-46.08-50.92-16.95-14.86-34.47-29.43-50.25-45.75l83.32-29.68c12.01-1.01 11.43-14.55 14.7-23.3 2.3-10.12 5.31-20.02 8-30 6.16-14.52-12.78-3.25-19.8-2.8-39.2 11.53-79.12 20.86-118.21 32.79-12.38-.82-14.94 10.2-17.09 19.91-6.71 18.56-12.66 37.4-18.92 56.08 11.98 12.55 23.8 25.99 36.75 38.25 6.25 6.95 13.47 16.03 22.5 8.01 7.55-.95 13.78 10.03 21 13.49 5.59 6.68 16.08 10.05 18.75 18.25z" />
    <path
       id="T"
       d="M1166 824c-29.43 2.33-60.82.33-91 1H907c-17.48-1.64-37.27 3.41-53.25-2.75-8.85-13.72-4.41-32.49-7.75-48.25-1.92-34.86-5.82-69.22-8-104-9.11 5.28-17.5 12.59-26.25 18.75-8.51 6.13-21.33 12.96-14.75 25.25 4.17 40.18 8.98 80.07 11.22 120.78 6.03 21.42-9.6 63.61 21.78 67.22h353c16.76 5.1 22.55-8.16 22-22 5.92-47.86 19.01-103.71-17-143-13.67 11.15-26.34 23.74-40 35l15.08 26.92c2.49 7.42 18.42 23.48 2.92 25.08z" />
    <path
       id="U"
       d="M724 680c-14.93-.87-21.82 16.53-33.25 23.75-16.43 10.68 2.52 21.05 10.5 30 8.11 12.06 23.87 20.24 33 4.5 6.08-9.79 28.5-18.63 18.5-31-9.25-9.58-19.32-18.21-28.75-27.25z" />
    <path
       id="V"
       d="M621 781c4.85-19.74 20.03-44.14 8.75-63.75-7.6-10.34-21.61-8.9-32.73-7.23-38.71 11.24-65.67 47.48-85.1 80.9-7.11 18.72-21.08 45.01-5.67 62.83 19.59 15.96 47.89 4.45 70.07 12.93 15.76.95 9.34 16.04-2.63 17.01-10.01 4.67-20.69 7.27-31.02 10.98-32.86 7.26-74.07 12.77-102.44-8.9-22.24-13.91-11.38-44.25-8.16-64.7 2.97-10.95 11.32-21.13 7.23-33.36-8.56-3.09-14 12.69-17.99 19.6-4.58 10.12-9.03 20.33-10.53 31.47-8.33 39.76-17.21 108.4 37.15 117.29 56.7 11.75 113.72-9.56 157.08-44.06 2.84-10.36 7.51-20.17 12.01-29.98 7.49-16.58 22.57-50.2-4.02-57.03-23.18-4.86-46.77-8.36-69.92-13.08-11.31-4.4-7.6-20.25.67-26.17 6.98-7.67 16.08-11.91 24.02-17.98C585.1 752.36 610.86 761.5 621 781z" />
    <path
       id="W"
       d="M796 850v-15c-5.95-33.3-32.94-57.87-58-80-4.35 9.69-8 18.72-12.69 27.31-2.45 9.59-12.53 18.35-9.23 28.61 6.03 6.82 12.05 13.82 18.67 20.33 12.32 13.15 33.59 33.09 14.5 50C719.99 910.42 680.66 930.84 639 927c-10.81.96-22.91-7.56-31.99-4.01 16.56 24.65 47.29 36.05 74.32 44.68C749.53 983.81 796.68 910.03 796 850z" />
    <path
       id="X"
       d="M1110 974c11.77 3.82 19.33 21.77 32.92 17.92 8.84-8.26 19.26-17.09 26.07-26.91-4.51-11.24-18.92-16.76-27.77-25.23-13.41-6.41-20.73 12.34-30.55 18.89-13.31.18-20.1-21.56-34.92-15.92-7.74 9.63-20.76 16.7-24.72 28.22 7.33 9.45 19.29 16.3 28.9 24.1 13.4 3.72 20.79-13.73 30.07-21.07z" />
  </defs>
</svg>
